# xmcd
#
# Track frame offsets:
#	150
#	19962
#	34452
#	49485
#	73185
#	96467
#	111582
#	132799
#	148909
#	165396
#	183283
#	201004
#
# Disc length: 2877 seconds
#
# Revision: 1
# Processed by: cddbd v1.5.2PL0 Copyright (c) Steve Scherf et al.
# Submitted via: audiograbber 1.81.03
#
DISCID=bc0b3b0c
DTITLE=Shirley`Eikhard - Stuck In This Groove
DYEAR=2007
DGENRE=Blues
TTITLE0=We Stand On Common Ground
TTITLE1=Talk Radio
TTITLE2=Living Under Glass
TTITLE3=On This Endless Flight
TTITLE4=Stuck In This Groove
TTITLE5=Angel's Home At Last
TTITLE6=Once We Find Our Groove
TTITLE7=Don't Believe That Jazz Is Dead
TTITLE8=Somewhereville
TTITLE9=I Live For Today
TTITLE10=It's All About You
TTITLE11=Starry Nose Mole
EXTD=
EXTT0=
EXTT1=
EXTT2=
EXTT3=
EXTT4=
EXTT5=
EXTT6=
EXTT7=
EXTT8=
EXTT9=
EXTT10=
EXTT11=
PLAYORDER=
